<?xml version="1.0" encoding="utf-8"?>
<!-- Generator: Adobe Illustrator 26.5.0, SVG Export Plug-In . SVG Version: 6.00 Build 0)  -->
<svg version="1.1" id="Layer_1" xmlns="http://www.w3.org/2000/svg" xmlns:xlink="http://www.w3.org/1999/xlink" x="0px" y="0px"
	 viewBox="0 0 792 612" style="enable-background:new 0 0 792 612;" xml:space="preserve">
<style type="text/css">
	.st0{fill:#FFFFFF;}
	.st1{fill:#009457;}
</style>
<g>
	<g>
		<path class="st0" d="M274.37,333.4l-21.58-24.94v24.94h-9.14v-55.75h9.14v25.43l21.66-25.43h11.47l-24.22,27.91l24.62,27.83
			H274.37z"/>
		<path class="st0" d="M300.99,333.4h-9.24v-39.45h8.13l0.78,7.18c1.01-2.52,2.61-4.48,4.78-5.89c2.18-1.41,4.78-2.11,7.82-2.11
			c1.12,0,2.01,0.11,2.67,0.33v8.41c-0.66-0.16-1.3-0.24-1.93-0.24c-3.89,0-7.03,1.19-9.42,3.57c-2.39,2.38-3.59,5.56-3.59,9.52
			V333.4z"/>
		<path class="st0" d="M348.78,316.25v-22.29h9.24v23.4c0,4.98-1.7,9.04-5.11,12.17s-7.82,4.7-13.24,4.7
			c-5.47,0-9.89-1.55-13.26-4.64c-3.37-3.09-5.05-7.14-5.05-12.15v-23.48h9.24v22.29c0,2.79,0.83,5.08,2.5,6.86
			c1.67,1.78,3.86,2.67,6.57,2.67c2.71,0,4.91-0.89,6.59-2.67C347.94,321.32,348.78,319.04,348.78,316.25z"/>
		<path class="st0" d="M372.76,333.4h-9.32v-39.45h8.13l1.03,4.88c1.07-1.45,2.57-2.76,4.52-3.94c1.94-1.18,4.36-1.77,7.26-1.77
			c3.23,0,6.02,0.63,8.35,1.89c2.34,1.26,4.14,3.01,5.4,5.26c1.37-2.08,3.24-3.79,5.6-5.13c2.37-1.34,5.1-2.01,8.19-2.01
			c5.06,0,9.01,1.49,11.84,4.48c2.83,2.98,4.25,6.92,4.25,11.82v23.97h-9.36v-21.96c0-3.07-0.75-5.44-2.24-7.12
			c-1.49-1.68-3.58-2.52-6.26-2.52c-2.76,0-5.05,0.82-6.87,2.46c-1.82,1.64-2.77,3.87-2.85,6.69v22.45h-9.36v-21.96
			c0-3.07-0.75-5.44-2.24-7.12s-3.59-2.52-6.3-2.52c-2.79,0-5.12,0.86-6.98,2.58c-1.86,1.72-2.79,4.08-2.79,7.06V333.4z"/>
		<path class="st0" d="M475.54,333.4h-8.33l-0.78-5.05c-3.17,3.91-7.7,5.87-13.59,5.87c-5.61,0-10.28-1.95-14.02-5.85
			c-3.73-3.9-5.6-8.86-5.6-14.88c0-5.97,1.86-10.86,5.58-14.7c3.72-3.83,8.4-5.75,14.04-5.75c5.91,0,10.44,1.98,13.59,5.95
			l0.62-5.13h8.5V333.4z M454.24,326.1c3.47,0,6.36-1.22,8.66-3.67c2.3-2.45,3.45-5.43,3.45-8.93c0-3.45-1.14-6.34-3.43-8.68
			c-2.29-2.34-5.18-3.51-8.68-3.51c-3.5,0-6.35,1.16-8.54,3.49c-2.19,2.33-3.28,5.23-3.28,8.7c0,3.53,1.09,6.51,3.28,8.95
			C447.89,324.88,450.73,326.1,454.24,326.1z"/>
		<path class="st0" d="M528.98,333.4H495.5v-55.75h9.81v47.08h23.67V333.4z"/>
		<path class="st0" d="M574.78,333.4h-8.33l-0.78-5.05c-3.17,3.91-7.7,5.87-13.59,5.87c-5.61,0-10.28-1.95-14.02-5.85
			c-3.74-3.9-5.6-8.86-5.6-14.88c0-5.97,1.86-10.86,5.58-14.7c3.72-3.83,8.4-5.75,14.04-5.75c5.91,0,10.44,1.98,13.59,5.95
			l0.62-5.13h8.5V333.4z M553.47,326.1c3.48,0,6.36-1.22,8.66-3.67c2.3-2.45,3.45-5.43,3.45-8.93c0-3.45-1.14-6.34-3.43-8.68
			c-2.28-2.34-5.18-3.51-8.68-3.51s-6.35,1.16-8.54,3.49c-2.19,2.33-3.28,5.23-3.28,8.7c0,3.53,1.09,6.51,3.28,8.95
			C547.12,324.88,549.97,326.1,553.47,326.1z"/>
		<path class="st0" d="M617.06,298.85c-3.68-3.86-8.35-5.8-13.99-5.8c-5.82,0-10.34,1.96-13.54,5.88v-21.28h-9.33v55.76h8.05
			l1.02-5.13c3.25,3.96,7.8,5.96,13.64,5.96c5.64,0,10.32-1.98,14.05-5.9c3.74-3.92,5.6-8.88,5.6-14.83
			C622.57,307.59,620.74,302.71,617.06,298.85z M610.2,322.4c-2.21,2.41-5.05,3.62-8.56,3.62c-3.49,0-6.37-1.21-8.66-3.64
			c-2.31-2.41-3.45-5.39-3.45-8.88c0-3.45,1.14-6.35,3.43-8.7c2.27-2.33,5.17-3.51,8.68-3.51s6.35,1.18,8.56,3.49
			c2.19,2.33,3.29,5.23,3.29,8.72C613.49,317.03,612.4,319.99,610.2,322.4z"/>
		<path class="st0" d="M626.2,319.94h8.74c0.25,2.14,1.16,3.78,2.75,4.93c1.59,1.15,3.47,1.72,5.67,1.72c1.94,0,3.59-0.4,4.95-1.21
			s2.03-1.95,2.03-3.43c0-0.66-0.16-1.24-0.49-1.74c-0.33-0.51-0.73-0.93-1.19-1.27c-0.46-0.34-1.15-0.66-2.05-0.94
			s-1.76-0.52-2.57-0.7c-0.81-0.18-1.87-0.39-3.18-0.64c-1.26-0.22-2.33-0.42-3.22-0.61c-0.89-0.19-1.92-0.46-3.1-0.82
			c-1.18-0.36-2.16-0.8-2.96-1.34c-0.79-0.53-1.56-1.16-2.3-1.89c-0.74-0.73-1.29-1.63-1.66-2.71c-0.37-1.08-0.55-2.29-0.55-3.63
			c0-2.05,0.46-3.9,1.38-5.54c0.92-1.64,2.13-2.95,3.65-3.92s3.2-1.71,5.03-2.22c1.83-0.51,3.75-0.76,5.75-0.76
			c4.32,0,8.03,1.17,11.1,3.49c3.08,2.33,4.7,5.63,4.86,9.89h-8.66c-0.19-1.81-1.03-3.23-2.5-4.27c-1.48-1.04-3.22-1.56-5.21-1.56
			c-1.75,0-3.29,0.38-4.6,1.13c-1.31,0.75-1.97,1.79-1.97,3.1c0,1.07,0.58,1.92,1.74,2.57c1.16,0.64,3.15,1.27,5.97,1.87
			c4.13,0.79,6.9,1.42,8.29,1.89c4.11,1.42,6.55,3.74,7.35,6.94c0.22,0.85,0.33,1.78,0.33,2.79c0,2.14-0.49,4.07-1.46,5.81
			c-0.97,1.74-2.27,3.14-3.88,4.21c-1.61,1.07-3.41,1.88-5.38,2.44c-1.97,0.56-4.02,0.84-6.16,0.84c-2.96,0-5.66-0.53-8.11-1.58
			c-2.45-1.05-4.45-2.7-6.01-4.93C627.02,325.61,626.23,322.98,626.2,319.94z"/>
	</g>
	<path class="st1" d="M207.39,260.85h-59.63c-8.47,0-15.34,6.87-15.34,15.34v59.63c0,8.47,6.87,15.34,15.34,15.34h59.63
		c8.47,0,15.34-6.87,15.34-15.34v-59.63C222.73,267.71,215.86,260.85,207.39,260.85z"/>
	<g>
		<path class="st0" d="M159.7,277.22h-10.09c-0.36,0-0.66,0.29-0.66,0.66v45.87c0,0.22,0.28,0.32,0.42,0.15l8.77-10.45
			c1.43-1.7,2.21-3.85,2.21-6.07l0-29.5C160.36,277.51,160.07,277.22,159.7,277.22z"/>
		<path class="st0" d="M206.12,277.65c0.15-0.16,0.04-0.43-0.19-0.43h-14.49c-0.32,0-0.63,0.13-0.85,0.37l-21.34,22.88
			c-0.68,0.73-1.07,1.7-1.07,2.71v4.22c0,2.22,0.78,4.37,2.21,6.07l17.54,20.9c0.22,0.26,0.55,0.41,0.89,0.41h13.79
			c0.22,0,0.34-0.26,0.2-0.42l-23.15-27.59c-0.19-0.23-0.18-0.56,0.02-0.78L206.12,277.65z"/>
	</g>
</g>
</svg>
